<?xml version="1.0" standalone="no"?>
<!DOCTYPE svg PUBLIC "-//W3C//DTD SVG 20010904//EN"
 "http://www.w3.org/TR/2001/REC-SVG-20010904/DTD/svg10.dtd">
<svg version="1.0" xmlns="http://www.w3.org/2000/svg"
 width="512.000000pt" height="512.000000pt" viewBox="0 0 512.000000 512.000000"
 preserveAspectRatio="xMidYMid meet">

<g transform="translate(0.000000,512.000000) scale(0.100000,-0.100000)"
fill="#000000" stroke="none">
<path d="M2062 4742 c-29 -11 -69 -32 -88 -48 -19 -16 -247 -321 -507 -679
l-472 -650 -345 -5 -345 -5 -67 -32 c-93 -44 -151 -100 -196 -191 -35 -72 -37
-81 -37 -172 0 -91 2 -100 37 -172 23 -46 55 -91 83 -117 47 -44 164 -104 229
-118 24 -5 46 -18 57 -33 13 -18 65 -286 189 -970 94 -520 178 -966 186 -992
20 -60 83 -132 148 -166 l51 -27 1575 0 1575 0 51 27 c65 34 128 106 148 166
8 26 92 472 186 992 124 684 176 952 189 970 11 15 33 28 57 33 65 14 182 74
229 118 28 26 60 71 83 117 35 72 37 81 37 171 0 87 -3 102 -32 163 -44 93
-100 151 -191 196 l-76 37 -345 5 -346 5 -472 650 c-305 420 -486 661 -513
682 -82 65 -204 79 -302 35 -134 -59 -205 -213 -164 -354 13 -46 74 -132 380
-536 l365 -482 -859 0 -860 0 124 163 c585 770 606 800 622 855 29 98 4 206
-65 285 -72 82 -213 117 -319 79z m147 -196 c30 -16 51 -53 51 -91 0 -24 -59
-105 -602 -820 l-205 -270 -107 -3 -108 -3 35 48 c19 26 211 291 427 588 216
297 402 545 414 552 28 16 61 16 95 -1z m797 1 c12 -7 198 -255 414 -552 216
-297 408 -562 427 -588 l35 -48 -108 3 -108 3 -204 270 c-577 761 -602 795
-602 823 1 76 82 125 146 89z m1817 -1416 c21 -13 50 -42 65 -64 23 -34 27
-52 27 -108 0 -59 -4 -73 -30 -110 -16 -23 -48 -52 -70 -63 -40 -21 -51 -21
-965 -26 -509 -3 -933 -9 -943 -14 -23 -11 -47 -58 -47 -92 0 -16 12 -38 34
-60 l34 -34 787 0 787 0 -5 -22 c-3 -13 -83 -448 -177 -968 -95 -519 -176
-952 -181 -962 -27 -50 44 -48 -1578 -48 -935 0 -1519 4 -1535 10 -14 5 -32
19 -40 32 -8 13 -89 432 -186 968 -94 520 -174 955 -177 968 l-5 22 781 0
c849 0 823 -2 849 55 7 14 12 35 12 46 0 28 -26 75 -47 85 -10 5 -436 11 -948
14 l-930 5 -38 24 c-76 47 -111 140 -88 229 14 52 76 117 123 131 21 6 867 9
2243 8 l2210 -2 38 -24z"/>
<path d="M2511 2746 c-87 -48 -50 -186 49 -186 51 0 100 49 100 99 0 75 -83
124 -149 87z"/>
<path d="M1463 2242 c-101 -36 -171 -115 -193 -216 -8 -34 -10 -195 -8 -496 3
-428 4 -447 24 -491 31 -66 78 -114 142 -146 47 -23 70 -28 132 -28 125 0 222
62 274 174 20 45 21 59 21 521 0 462 -1 476 -21 521 -65 141 -229 212 -371
161z m146 -196 c50 -26 51 -36 51 -486 0 -450 -1 -460 -51 -486 -52 -27 -115
-8 -137 41 -18 39 -16 861 2 894 26 47 84 63 135 37z"/>
<path d="M2463 2242 c-101 -36 -171 -115 -193 -216 -8 -34 -10 -195 -8 -496 3
-428 4 -447 24 -491 31 -66 78 -114 142 -146 47 -23 70 -28 132 -28 125 0 222
62 274 174 20 45 21 59 21 521 0 462 -1 476 -21 521 -65 141 -229 212 -371
161z m146 -196 c50 -26 51 -36 51 -486 0 -450 -1 -460 -51 -486 -52 -27 -115
-8 -137 41 -18 39 -16 861 2 894 26 47 84 63 135 37z"/>
<path d="M3463 2242 c-101 -36 -171 -115 -193 -216 -8 -34 -10 -195 -8 -496 3
-428 4 -447 24 -491 31 -66 78 -114 142 -146 47 -23 70 -28 132 -28 125 0 222
62 274 174 20 45 21 59 21 521 0 462 -1 476 -21 521 -65 141 -229 212 -371
161z m146 -196 c50 -26 51 -36 51 -486 0 -450 -1 -460 -51 -486 -52 -27 -115
-8 -137 41 -18 39 -16 861 2 894 26 47 84 63 135 37z"/>
</g>
</svg>
