<?xml version="1.0" standalone="no"?>
<!DOCTYPE svg PUBLIC "-//W3C//DTD SVG 20010904//EN"
 "http://www.w3.org/TR/2001/REC-SVG-20010904/DTD/svg10.dtd">
<svg version="1.0" xmlns="http://www.w3.org/2000/svg"
 width="512.000000pt" height="512.000000pt" viewBox="0 0 512.000000 512.000000"
 preserveAspectRatio="xMidYMid meet">

<g transform="translate(0.000000,512.000000) scale(0.100000,-0.100000)"
fill="#000000" stroke="none">
<path d="M2405 5105 c-388 -63 -718 -360 -876 -788 -214 -578 -59 -1260 371
-1632 128 -111 296 -197 453 -232 97 -22 317 -22 414 0 213 48 420 175 576
355 479 552 452 1485 -57 1994 -248 248 -560 355 -881 303z m309 -335 c254
-65 476 -289 576 -582 51 -151 65 -238 65 -413 0 -224 -41 -399 -134 -571
-319 -590 -1003 -590 -1322 0 -93 173 -134 346 -134 571 0 175 14 260 65 411
145 427 523 677 884 584z"/>
<path d="M1420 2603 c-399 -267 -716 -724 -825 -1190 -49 -207 -70 -487 -45
-594 77 -331 396 -562 973 -704 329 -80 600 -109 1037 -109 437 0 708 29 1037
109 506 125 827 327 936 590 44 107 50 155 44 329 -19 496 -230 971 -591 1331
-96 96 -193 177 -288 239 l-57 38 -119 -120 -120 -120 39 -21 c75 -43 205
-145 298 -235 155 -151 259 -295 350 -487 100 -209 149 -404 158 -631 6 -145
6 -148 -21 -202 -142 -291 -832 -496 -1666 -496 -834 0 -1524 205 -1666 496
-27 54 -27 57 -21 202 14 344 134 666 353 948 89 114 275 288 391 364 l98 65
-117 117 c-64 65 -118 118 -120 118 -2 0 -28 -17 -58 -37z"/>
</g>
</svg>
